<?xml version="1.0" standalone="no"?>
<!DOCTYPE svg PUBLIC "-//W3C//DTD SVG 20010904//EN"
 "http://www.w3.org/TR/2001/REC-SVG-20010904/DTD/svg10.dtd">
<svg version="1.0" xmlns="http://www.w3.org/2000/svg"
 width="626.000000pt" height="626.000000pt" viewBox="0 0 626.000000 626.000000"
 preserveAspectRatio="xMidYMid meet">

<g transform="translate(0.000000,626.000000) scale(0.100000,-0.100000)"
fill="#000000" stroke="none">
<path d="M4508 3887 c-27 -11 -38 -27 -18 -27 21 0 9 -30 -20 -52 -20 -14 -28
-28 -25 -39 7 -22 -4 -49 -20 -49 -8 0 -21 -36 -36 -100 -14 -62 -28 -100 -36
-100 -17 0 -33 -32 -34 -72 -1 -31 -2 -31 -11 10 -5 24 -12 42 -14 39 -2 -2 3
-37 12 -78 24 -113 29 -306 10 -419 -32 -194 -109 -374 -229 -532 -39 -51 -70
-94 -69 -95 1 -2 -1 -3 -4 -2 -11 2 -63 -54 -58 -62 5 -9 -15 -23 -36 -24 -8
0 -14 -7 -12 -15 2 -8 0 -12 -3 -8 -4 4 -36 -13 -70 -38 -126 -89 -314 -167
-472 -195 -76 -14 -252 -17 -358 -7 -47 4 -59 4 -35 -2 97 -24 313 -21 444 7
18 4 27 2 23 -4 -7 -10 -73 -25 -114 -25 -13 0 -23 -5 -23 -10 0 -6 -11 -8
-24 -6 -17 3 -23 1 -19 -8 2 -7 19 -15 36 -17 l32 -4 -30 -1 -30 -2 5 -82 c4
-74 7 -84 28 -93 22 -10 25 -26 5 -32 -19 -7 -43 58 -43 117 0 67 -13 83 -62
78 -33 -3 -33 -3 -36 -62 -3 -60 14 -96 44 -96 9 0 14 -20 16 -66 3 -59 6 -68
26 -75 15 -6 21 -5 17 1 -4 6 10 10 35 10 39 0 40 -1 34 -27 -4 -16 -11 -32
-15 -37 -16 -18 -9 -45 14 -52 19 -6 20 -8 4 -13 -14 -5 -11 -10 18 -25 19
-11 35 -25 35 -31 0 -18 40 -26 116 -24 39 1 64 6 64 13 0 6 5 4 10 -4 5 -8
10 -10 10 -4 0 14 15 21 90 40 30 8 74 26 97 39 23 13 56 26 73 30 17 4 34 13
37 21 3 8 9 12 13 9 5 -3 12 -1 15 5 7 11 -46 8 -153 -10 -28 -5 -58 -7 -66
-4 -18 7 -26 37 -14 58 5 9 13 48 17 87 6 56 5 68 -4 55 -7 -9 -10 -27 -7 -41
2 -14 0 -25 -6 -25 -10 0 -9 39 3 78 6 16 3 22 -9 22 -17 0 -63 57 -58 73 2 5
-3 14 -10 18 -10 7 -10 15 5 40 9 17 17 40 17 52 0 34 15 51 39 44 19 -5 21
-1 21 34 0 21 5 39 10 39 6 0 10 -4 10 -9 0 -4 11 -6 25 -3 14 2 25 11 25 19
0 8 5 11 10 8 6 -3 10 1 10 9 0 12 11 16 43 18 93 3 126 -8 167 -57 68 -80 88
-95 123 -95 20 0 39 -5 42 -10 4 -6 22 -9 40 -7 19 2 36 0 37 -5 4 -10 88 30
100 47 4 6 8 7 8 3 0 -4 12 4 27 18 16 15 33 22 44 19 40 -13 70 9 166 124 54
64 111 130 126 146 16 17 44 53 62 80 18 28 42 59 54 69 11 11 21 27 21 36 0
10 7 23 15 30 8 7 24 33 36 59 12 25 25 53 30 61 5 8 12 22 16 30 4 8 13 21
20 28 7 7 13 27 13 43 0 16 5 29 10 29 14 0 13 -24 -11 -135 -62 -290 -207
-576 -421 -826 -66 -78 -60 -84 12 -10 33 34 64 61 69 61 5 0 12 11 15 25 4
14 12 25 19 25 6 1 24 17 39 38 14 20 44 60 65 87 67 87 190 319 238 450 59
164 69 228 69 450 0 110 -4 216 -8 235 -3 19 -12 62 -18 95 -6 33 -15 63 -20
66 -5 3 -10 16 -11 27 -1 12 -5 22 -10 22 -4 0 -5 4 -2 10 7 12 -34 139 -52
161 -7 8 -13 22 -13 31 0 23 -61 109 -73 101 -6 -4 -8 2 -5 15 4 13 2 20 -4
16 -5 -3 -12 3 -15 15 -3 12 -11 21 -19 21 -8 0 -20 15 -28 34 -7 18 -27 43
-44 55 -27 19 -39 21 -100 15 -47 -5 -71 -3 -76 5 -9 13 -31 13 -68 -2z m-36
-119 c-7 -7 -12 -8 -12 -2 0 6 3 14 7 17 3 4 9 5 12 2 2 -3 -1 -11 -7 -17z
m-130 -300 c-8 -8 -9 -4 -5 13 4 13 8 18 11 10 2 -7 -1 -18 -6 -23z m-5 -150
c-2 -13 -4 -5 -4 17 -1 22 1 32 4 23 2 -10 2 -28 0 -40z m-467 -1093 c-7 -8
-17 -15 -22 -15 -6 0 -5 7 2 15 7 8 17 15 22 15 6 0 5 -7 -2 -15z m-46 -30
c-4 -8 -13 -15 -22 -15 -13 0 -12 3 4 15 24 18 25 18 18 0z m-64 -46 c0 -6 -9
-13 -20 -16 -11 -3 -17 -10 -13 -16 4 -6 0 -8 -11 -4 -9 4 -30 0 -47 -8 -16
-9 -29 -12 -28 -8 0 8 95 60 112 62 4 1 7 -4 7 -10z m-163 -81 c-2 -7 -14 -12
-27 -10 -14 2 -20 0 -15 -8 5 -7 -2 -9 -22 -5 -23 5 -25 4 -13 -5 13 -10 12
-11 -3 -6 -10 3 -24 6 -30 7 -14 1 82 37 101 38 8 1 12 -5 9 -11z m33 -38 c0
-5 -4 -10 -10 -10 -5 0 -10 5 -10 10 0 6 5 10 10 10 6 0 10 -4 10 -10z m50
-344 c0 -27 -20 -67 -30 -61 -14 9 -13 48 2 63 16 16 28 15 28 -2z"/>
<path d="M4180 3750 c6 -11 13 -20 16 -20 2 0 0 9 -6 20 -6 11 -13 20 -16 20
-2 0 0 -9 6 -20z"/>
<path d="M4211 3695 c0 -5 6 -21 14 -35 8 -14 14 -20 14 -15 0 6 -6 21 -14 35
-8 14 -14 21 -14 15z"/>
<path d="M4001 3610 c14 -31 19 -36 19 -24 0 6 -7 19 -16 30 -14 18 -14 18 -3
-6z"/>
<path d="M4251 3610 c0 -8 6 -28 14 -45 17 -39 18 -21 0 25 -7 19 -14 28 -14
20z"/>
<path d="M4030 3545 c0 -5 5 -17 10 -25 5 -8 10 -10 10 -5 0 6 -5 17 -10 25
-5 8 -10 11 -10 5z"/>
<path d="M4051 3495 c1 -19 18 -51 18 -35 0 8 -4 22 -9 30 -5 8 -9 11 -9 5z"/>
<path d="M5102 3450 c0 -14 2 -19 5 -12 2 6 2 18 0 25 -3 6 -5 1 -5 -13z"/>
<path d="M5111 3394 c0 -11 3 -14 6 -6 3 7 2 16 -1 19 -3 4 -6 -2 -5 -13z"/>
<path d="M4081 3384 c0 -11 3 -14 6 -6 3 7 2 16 -1 19 -3 4 -6 -2 -5 -13z"/>
<path d="M4092 3335 c0 -16 2 -22 5 -12 2 9 2 23 0 30 -3 6 -5 -1 -5 -18z"/>
<path d="M2893 3305 c-3 -9 -3 -18 -1 -21 3 -3 8 4 11 16 6 23 -1 27 -10 5z"/>
<path d="M4102 3185 c-2 -66 -7 -138 -12 -160 -7 -33 -8 -27 -6 35 2 41 1 58
-1 38 -4 -33 -8 -38 -29 -38 -31 0 -54 -21 -54 -49 0 -13 -12 -26 -32 -36 -18
-8 -42 -28 -53 -45 -11 -16 -25 -30 -31 -30 -11 0 -44 -58 -44 -77 0 -5 -7
-10 -15 -10 -10 0 -15 11 -16 31 -1 26 -3 24 -10 -13 -5 -25 -12 -47 -16 -50
-5 -3 -14 -18 -22 -33 -7 -15 -30 -42 -49 -60 l-36 -33 37 44 c20 25 37 49 37
54 0 5 -15 -11 -33 -35 -18 -24 -57 -56 -87 -73 -46 -25 -70 -31 -150 -36
l-95 -6 107 0 c64 0 105 4 101 10 -3 5 4 6 18 2 15 -4 19 -3 11 2 -9 7 -2 14
23 26 31 15 35 15 35 1 0 -9 -5 -12 -12 -8 -7 4 -8 3 -4 -5 11 -17 -12 -41
-31 -34 -11 4 -14 2 -9 -5 5 -8 2 -10 -9 -5 -10 3 -21 0 -26 -8 -5 -9 -9 -10
-9 -2 0 7 -11 10 -27 8 -16 -2 -35 -4 -43 -5 -8 -2 -1 -6 15 -10 28 -7 27 -8
-15 -10 -31 -1 -39 -4 -26 -9 14 -5 5 -11 -38 -21 -62 -15 -73 -29 -23 -31
l32 -2 -35 -6 c-24 -4 -35 -11 -34 -22 1 -10 -5 -15 -15 -12 -9 2 -31 -8 -50
-22 -19 -14 -43 -25 -53 -25 -10 0 -18 -4 -18 -10 0 -5 -7 -10 -15 -10 -9 0
-15 -9 -15 -24 0 -32 -1 -32 -93 -45 -75 -11 -107 -26 -107 -51 0 -8 11 -11
30 -8 17 3 33 1 36 -4 3 -4 44 -9 92 -10 l87 -2 -95 -7 c-86 -6 -83 -6 30 -3
70 2 152 10 185 19 93 24 175 56 169 66 -3 5 3 6 12 2 12 -4 15 -3 10 5 -4 7
-2 10 6 7 16 -6 121 53 113 64 -2 5 3 8 13 7 9 0 16 5 14 12 -1 8 2 11 7 8 5
-4 22 6 38 20 15 15 19 20 8 13 -18 -13 -19 -13 -6 3 7 10 17 15 22 13 10 -7
100 86 93 97 -3 5 0 7 8 6 7 -2 12 5 12 14 -1 10 2 16 6 13 12 -7 41 36 33 48
-3 6 -2 7 4 4 12 -8 67 89 58 103 -4 6 -1 9 6 8 15 -4 63 127 84 229 11 52 15
116 13 193 l-4 115 -2 -120z m-25 -227 c-3 -8 -6 -5 -6 6 -1 11 2 17 5 13 3
-3 4 -12 1 -19z m-36 -111 c-10 -9 -11 -8 -5 6 3 10 9 15 12 12 3 -3 0 -11 -7
-18z m-405 -482 c-11 -8 -25 -15 -30 -15 -6 1 0 7 14 15 32 19 40 18 16 0z
m-566 -85 c0 -5 -7 -10 -15 -10 -8 0 -15 5 -15 10 0 6 7 10 15 10 8 0 15 -4
15 -10z m247 -26 c-3 -3 -12 -4 -19 -1 -8 3 -5 6 6 6 11 1 17 -2 13 -5z"/>
<path d="M2990 3135 c13 -14 26 -25 28 -25 3 0 -5 11 -18 25 -13 14 -26 25
-28 25 -3 0 5 -11 18 -25z"/>
<path d="M5093 2980 c0 -47 2 -66 4 -42 2 23 2 61 0 85 -2 23 -4 4 -4 -43z"/>
<path d="M3495 3035 c50 -18 57 -18 25 0 -14 8 -34 14 -45 14 -11 0 -2 -6 20
-14z"/>
<path d="M3090 3037 c0 -2 15 -16 33 -33 l32 -29 -29 33 c-28 30 -36 37 -36
29z"/>
<path d="M3409 3013 c-13 -16 -12 -17 4 -4 16 13 21 21 13 21 -2 0 -10 -8 -17
-17z"/>
<path d="M3555 3021 c-3 -6 3 -15 14 -21 14 -7 22 -7 26 0 4 6 3 10 -2 9 -20
-3 -34 2 -28 11 3 6 4 10 1 10 -3 0 -7 -4 -11 -9z"/>
<path d="M5123 2960 c0 -25 2 -35 4 -22 2 12 2 32 0 45 -2 12 -4 2 -4 -23z"/>
<path d="M3369 2963 c-13 -16 -12 -17 4 -4 16 13 21 21 13 21 -2 0 -10 -8 -17
-17z"/>
<path d="M3684 2933 l78 -46 -4 -59 c-2 -32 -1 -53 4 -46 12 19 10 118 -3 118
-5 0 -7 5 -3 12 4 7 3 8 -5 4 -6 -4 -38 9 -70 28 -32 20 -63 36 -67 36 -5 0
26 -21 70 -47z"/>
<path d="M2855 2930 c10 -11 20 -20 23 -20 3 0 -3 9 -13 20 -10 11 -20 20 -23
20 -3 0 3 -9 13 -20z"/>
<path d="M3210 2936 c0 -2 7 -7 16 -10 8 -3 12 -2 9 4 -6 10 -25 14 -25 6z"/>
<path d="M3329 2924 c-9 -11 -23 -14 -49 -10 -24 4 -30 3 -20 -4 24 -16 56
-11 75 10 10 11 16 20 13 20 -3 0 -12 -7 -19 -16z"/>
<path d="M5112 2860 c0 -14 2 -19 5 -12 2 6 2 18 0 25 -3 6 -5 1 -5 -13z"/>
<path d="M2955 2830 c10 -11 20 -20 23 -20 3 0 -3 9 -13 20 -10 11 -20 20 -23
20 -3 0 3 -9 13 -20z"/>
<path d="M5102 2795 c0 -16 2 -22 5 -12 2 9 2 23 0 30 -3 6 -5 -1 -5 -18z"/>
<path d="M3034 2771 c7 -11 46 -35 46 -28 0 3 -12 12 -26 22 -15 9 -23 12 -20
6z"/>
<path d="M5071 2644 c0 -11 3 -14 6 -6 3 7 2 16 -1 19 -3 4 -6 -2 -5 -13z"/>
<path d="M3318 2623 c7 -3 16 -2 19 1 4 3 -2 6 -13 5 -11 0 -14 -3 -6 -6z"/>
<path d="M3358 2613 c7 -3 16 -2 19 1 4 3 -2 6 -13 5 -11 0 -14 -3 -6 -6z"/>
<path d="M2331 2424 c0 -11 3 -14 6 -6 3 7 2 16 -1 19 -3 4 -6 -2 -5 -13z"/>
<path d="M2678 2353 c7 -3 16 -2 19 1 4 3 -2 6 -13 5 -11 0 -14 -3 -6 -6z"/>
<path d="M2628 2343 c7 -3 16 -2 19 1 4 3 -2 6 -13 5 -11 0 -14 -3 -6 -6z"/>
<path d="M2568 2333 c7 -3 16 -2 19 1 4 3 -2 6 -13 5 -11 0 -14 -3 -6 -6z"/>
<path d="M2760 2321 c19 -10 46 -21 60 -25 14 -3 1 5 -29 19 -62 29 -83 33
-31 6z"/>
<path d="M2918 2263 c7 -3 16 -2 19 1 4 3 -2 6 -13 5 -11 0 -14 -3 -6 -6z"/>
<path d="M2975 2250 c17 -4 44 -8 60 -8 25 0 24 2 -10 9 -51 10 -92 10 -50 -1z"/>
<path d="M2628 2113 c7 -3 16 -2 19 1 4 3 -2 6 -13 5 -11 0 -14 -3 -6 -6z"/>
<path d="M2568 2103 c6 -2 18 -2 25 0 6 3 1 5 -13 5 -14 0 -19 -2 -12 -5z"/>
<path d="M2750 2080 c8 -5 22 -9 30 -9 10 0 8 3 -5 9 -27 12 -43 12 -25 0z"/>
<path d="M2855 2045 c22 -8 49 -13 60 -13 11 0 -2 6 -30 14 -63 17 -84 16 -30
-1z"/>
<path d="M3173 1983 c15 -2 37 -2 50 0 12 2 0 4 -28 4 -27 0 -38 -2 -22 -4z"/>
<path d="M3105 1940 c3 -5 8 -10 11 -10 2 0 4 5 4 10 0 6 -5 10 -11 10 -5 0
-7 -4 -4 -10z"/>
<path d="M3615 1929 c-4 -6 -5 -12 -2 -15 2 -3 7 2 10 11 7 17 1 20 -8 4z"/>
<path d="M3635 1860 c10 -11 20 -20 23 -20 3 0 -3 9 -13 20 -10 11 -20 20 -23
20 -3 0 3 -9 13 -20z"/>
<path d="M4435 1720 c-22 -22 -36 -40 -32 -40 9 0 79 71 75 76 -3 2 -22 -14
-43 -36z"/>
<path d="M4344 1638 l-19 -23 23 19 c12 11 22 21 22 23 0 8 -8 2 -26 -19z"/>
<path d="M3223 1572 c1 -18 12 -27 42 -38 21 -7 41 -11 44 -9 9 10 -33 45 -55
45 -12 0 -25 6 -28 13 -3 6 -4 1 -3 -11z"/>
</g>
</svg>
